<svg width="60" height="60" viewBox="0 0 60 60" fill="none" xmlns="http://www.w3.org/2000/svg">
<path d="M50.2818 27.928C51.2263 25.1317 51.0693 22.0804 49.8428 19.3958C48.6163 16.7111 46.4124 14.595 43.6802 13.4785C40.948 12.3619 37.8929 12.3289 35.1372 13.3862C32.3814 14.4434 30.1324 16.5114 28.8482 19.169C27.6753 18.5064 26.3672 18.1189 25.0227 18.0357C23.6781 17.9526 22.3323 18.176 21.0867 18.6891C19.8412 19.2022 18.7284 19.9916 17.8326 20.9976C16.9367 22.0036 16.2811 23.2001 15.9152 24.4965C14.3129 24.0557 12.6347 23.9627 10.9934 24.2239C9.35213 24.485 7.78569 25.0942 6.39923 26.0106C5.01277 26.9269 3.83837 28.1293 2.95485 29.5369C2.07133 30.9445 1.49913 32.5249 1.27666 34.1718C1.05419 35.8188 1.18659 37.4943 1.66498 39.0859C2.14337 40.6775 2.95668 42.1483 4.05032 43.3997C5.14397 44.6511 6.49264 45.654 8.00582 46.3413C9.519 47.0285 11.1617 47.3841 12.8236 47.3842H49.0607C51.5453 47.3847 53.9366 46.4382 55.7479 44.7374C57.5591 43.0366 58.654 40.7094 58.8096 38.2297C58.9653 35.7499 58.1699 33.3041 56.5856 31.3902C55.0012 29.4763 52.7469 28.2382 50.2818 27.928Z" fill="#80CDF6"/>
</svg>
