<svg width="60" height="60" viewBox="0 0 60 60" fill="none" xmlns="http://www.w3.org/2000/svg">
<path d="M30 46.875C32.3198 46.8736 34.6143 46.3923 36.7391 45.4614C38.8639 44.5305 40.7732 43.17 42.3469 41.4656L42.4594 41.3813C45.0704 38.5229 46.6193 34.8537 46.8461 30.989C47.073 27.1242 45.9641 23.299 43.7055 20.1548C41.4468 17.0105 38.1757 14.7385 34.4408 13.7198C30.7059 12.701 26.7342 12.9975 23.1919 14.5594C19.6495 16.1213 16.752 18.8537 14.9851 22.2984C13.2182 25.7431 12.6895 29.6906 13.4876 33.4788C14.2857 37.2671 16.3621 40.6657 19.3685 43.1047C22.375 45.5438 26.1286 46.875 30 46.875ZM15.0844 31.5656L23.6813 40.9406L25.0688 39.6656L16.1344 29.9344L17.6531 30.2625C22.4438 31.3031 26.7188 35.3438 27.8063 39.8531L29.0625 45C25.5197 44.7768 22.1708 43.3044 19.6114 40.8445C17.052 38.3847 15.4479 35.0968 15.0844 31.5656ZM30.9375 45L32.1656 39.9C33.2531 35.3906 37.5281 31.35 42.3188 30.3094L43.8375 29.9813L34.9313 39.675L36.3188 40.95L44.9156 31.575C44.5501 35.1045 42.9451 38.3902 40.3859 40.8481C37.8266 43.3061 34.4789 44.7772 30.9375 45ZM30 15C33.5966 15.0044 37.072 16.3009 39.7926 18.6533C42.5133 21.0057 44.2981 24.2573 44.8219 27.8156L41.9531 28.425C36.4875 29.6156 31.6406 34.2375 30.375 39.4219L30 40.9688L29.625 39.4219C28.3781 34.2375 23.5125 29.6156 18.0469 28.425L15.1781 27.8156C15.7019 24.2573 17.4867 21.0057 20.2074 18.6533C22.9281 16.3009 26.4034 15.0044 30 15Z" fill="#FBAF5B"/>
<path d="M3.75 24.375C3.50136 24.375 3.2629 24.4738 3.08709 24.6496C2.91127 24.8254 2.8125 25.0639 2.8125 25.3125V34.6875C2.8125 34.9361 2.91127 35.1746 3.08709 35.3504C3.2629 35.5262 3.50136 35.625 3.75 35.625H7.24687C7.80812 37.9119 8.71547 40.0996 9.9375 42.1125L7.5 44.5875C7.40927 44.675 7.3371 44.7798 7.2878 44.8958C7.23851 45.0118 7.2131 45.1365 7.2131 45.2625C7.2131 45.3885 7.23851 45.5132 7.2878 45.6292C7.3371 45.7452 7.40927 45.85 7.5 45.9375L14.0625 52.5C14.2382 52.6746 14.4758 52.7726 14.7234 52.7726C14.9711 52.7726 15.2087 52.6746 15.3844 52.5L17.8594 50.025C19.8787 51.2628 22.0762 52.1829 24.375 52.7531V56.25C24.375 56.4986 24.4738 56.7371 24.6496 56.9129C24.8254 57.0887 25.0639 57.1875 25.3125 57.1875H34.6875C34.9361 57.1875 35.1746 57.0887 35.3504 56.9129C35.5262 56.7371 35.625 56.4986 35.625 56.25V52.7531C37.9119 52.1919 40.0996 51.2845 42.1125 50.0625L44.5875 52.5C44.675 52.5907 44.7798 52.6629 44.8958 52.7122C45.0118 52.7615 45.1365 52.7869 45.2625 52.7869C45.3885 52.7869 45.5132 52.7615 45.6292 52.7122C45.7452 52.6629 45.85 52.5907 45.9375 52.5L52.5 45.9375C52.6746 45.7618 52.7726 45.5242 52.7726 45.2766C52.7726 45.0289 52.6746 44.7913 52.5 44.6156L50.0625 42.1125C51.2845 40.0996 52.1919 37.9119 52.7531 35.625H56.25C56.4986 35.625 56.7371 35.5262 56.9129 35.3504C57.0887 35.1746 57.1875 34.9361 57.1875 34.6875V25.3125C57.1875 25.0639 57.0887 24.8254 56.9129 24.6496C56.7371 24.4738 56.4986 24.375 56.25 24.375H52.7531C52.1919 22.0881 51.2845 19.9004 50.0625 17.8875L52.5 15.4125C52.5907 15.325 52.6629 15.2202 52.7122 15.1042C52.7615 14.9882 52.7869 14.8635 52.7869 14.7375C52.7869 14.6115 52.7615 14.4868 52.7122 14.3708C52.6629 14.2548 52.5907 14.15 52.5 14.0625L45.9375 7.5C45.7618 7.32539 45.5242 7.22738 45.2766 7.22738C45.0289 7.22738 44.7913 7.32539 44.6156 7.5L42.1125 9.9375C40.0996 8.71547 37.9119 7.80812 35.625 7.24687V3.75C35.625 3.50136 35.5262 3.2629 35.3504 3.08709C35.1746 2.91127 34.9361 2.8125 34.6875 2.8125H25.3125C25.0639 2.8125 24.8254 2.91127 24.6496 3.08709C24.4738 3.2629 24.375 3.50136 24.375 3.75V7.24687C22.0881 7.80812 19.9004 8.71547 17.8875 9.9375L15.4125 7.5C15.325 7.40927 15.2202 7.3371 15.1042 7.2878C14.9882 7.23851 14.8635 7.2131 14.7375 7.2131C14.6115 7.2131 14.4868 7.23851 14.3708 7.2878C14.2548 7.3371 14.15 7.40927 14.0625 7.5L7.5 14.0625C7.32539 14.2382 7.22738 14.4758 7.22738 14.7234C7.22738 14.9711 7.32539 15.2087 7.5 15.3844L9.975 17.8594C8.73724 19.8787 7.81712 22.0762 7.24687 24.375H3.75ZM8.90625 25.5094C9.45386 22.9317 10.4742 20.4778 11.9156 18.2719C12.0348 18.0912 12.0878 17.8748 12.0656 17.6595C12.0434 17.4442 11.9473 17.2432 11.7937 17.0906L9.45 14.7562L14.7562 9.45L17.0906 11.7937C17.2432 11.9473 17.4442 12.0434 17.6595 12.0656C17.8748 12.0878 18.0912 12.0348 18.2719 11.9156C20.4778 10.4742 22.9317 9.45386 25.5094 8.90625C25.7226 8.86051 25.9132 8.74187 26.0484 8.57076C26.1835 8.39965 26.2549 8.18676 26.25 7.96875V4.6875H33.75V7.99687C33.7451 8.21489 33.8164 8.42777 33.9516 8.59889C34.0868 8.77 34.2774 8.88863 34.4906 8.93437C37.0683 9.48198 39.5221 10.5023 41.7281 11.9437C41.9088 12.0629 42.1252 12.1159 42.3405 12.0937C42.5558 12.0715 42.7568 11.9754 42.9094 11.8219L45.2437 9.47812L50.55 14.7844L48.2062 17.1188C48.0527 17.2713 47.9567 17.4723 47.9344 17.6876C47.9122 17.9029 47.9652 18.1193 48.0844 18.3C49.5258 20.506 50.5461 22.9599 51.0938 25.5375C51.1395 25.7507 51.2581 25.9413 51.4292 26.0765C51.6004 26.2117 51.8132 26.283 52.0312 26.2781H55.3125V33.7781H52.0031C51.7851 33.7733 51.5722 33.8446 51.4011 33.9798C51.23 34.1149 51.1114 34.3055 51.0656 34.5187C50.518 37.0964 49.4977 39.5503 48.0562 41.7563C47.9371 41.9369 47.8841 42.1533 47.9063 42.3686C47.9285 42.5839 48.0246 42.7849 48.1781 42.9375L50.5219 45.2719L45.2156 50.5781L42.8813 48.2344C42.7287 48.0808 42.5277 47.9848 42.3124 47.9626C42.0971 47.9403 41.8807 47.9933 41.7 48.1125C39.494 49.5539 37.0401 50.5743 34.4625 51.1219C34.2493 51.1676 34.0587 51.2863 33.9235 51.4574C33.7883 51.6285 33.717 51.8414 33.7219 52.0594V55.3125H26.25V52.0031C26.2549 51.7851 26.1835 51.5722 26.0484 51.4011C25.9132 51.23 25.7226 51.1114 25.5094 51.0656C22.9317 50.518 20.4778 49.4977 18.2719 48.0562C18.0912 47.9371 17.8748 47.8841 17.6595 47.9063C17.4442 47.9285 17.2432 48.0246 17.0906 48.1781L14.7562 50.5219L9.45 45.2156L11.7937 42.8813C11.9473 42.7287 12.0434 42.5277 12.0656 42.3124C12.0878 42.0971 12.0348 41.8807 11.9156 41.7C10.4774 39.5026 9.45715 37.0585 8.90625 34.4906C8.86051 34.2774 8.74187 34.0868 8.57076 33.9516C8.39965 33.8164 8.18676 33.7451 7.96875 33.75H4.6875V26.25H7.99687C8.21008 26.2484 8.41636 26.1741 8.58168 26.0394C8.747 25.9048 8.86148 25.7178 8.90625 25.5094Z" fill="#FBAF5B"/>
<path d="M21.1781 28.9781L29.6156 32.7281C29.7365 32.7825 29.8675 32.8105 30 32.8105C30.1325 32.8105 30.2635 32.7825 30.3844 32.7281L38.8219 28.9781C38.9864 28.9042 39.126 28.7844 39.2241 28.6331C39.3222 28.4817 39.3746 28.3053 39.375 28.125V20.625C39.3746 20.4447 39.3222 20.2683 39.2241 20.1169C39.126 19.9656 38.9864 19.8458 38.8219 19.7719L30.3844 16.0219C30.2635 15.9675 30.1325 15.9395 30 15.9395C29.8675 15.9395 29.7365 15.9675 29.6156 16.0219L21.1781 19.7719C21.0136 19.8458 20.874 19.9656 20.7759 20.1169C20.6778 20.2683 20.6254 20.4447 20.625 20.625V28.125C20.6254 28.3053 20.6778 28.4817 20.7759 28.6331C20.874 28.7844 21.0136 28.9042 21.1781 28.9781ZM22.5 22.0687L29.0625 24.9844V30.4312L22.5 27.5156V22.0687ZM30.9375 30.4312V24.9844L37.5 22.0687V27.5156L30.9375 30.4312ZM30 17.8969L36.1313 20.625L30 23.3531L23.8687 20.625L30 17.8969Z" fill="#FBAF5B"/>
</svg>
