<svg width="56" height="60" viewBox="0 0 56 60" fill="none" xmlns="http://www.w3.org/2000/svg">
<path d="M27.9468 47.6457C41.1038 47.6457 51.7697 36.9798 51.7697 23.8228C51.7697 10.6658 41.1038 0 27.9468 0C14.7898 0 4.12399 10.6658 4.12399 23.8228C4.12399 36.9798 14.7898 47.6457 27.9468 47.6457Z" fill="#FFD15C"/>
<path d="M8.64763 37.7598L0.450775 51.9684L10.0177 51.4606L14.3642 59.9999L21.9468 46.8543C16.5138 45.4487 11.8484 42.1771 8.64763 37.7598Z" fill="#40596B"/>
<path d="M47.2933 37.689C44.1161 42.1181 39.4508 45.4016 34.0295 46.8307L41.6358 60L45.9823 51.4606L55.5492 51.9685L47.2933 37.689Z" fill="#40596B"/>
<path d="M27.9468 41.0906C37.4835 41.0906 45.2145 33.3596 45.2145 23.8229C45.2145 14.2862 37.4835 6.55518 27.9468 6.55518C18.4101 6.55518 10.6791 14.2862 10.6791 23.8229C10.6791 33.3596 18.4101 41.0906 27.9468 41.0906Z" fill="#F8B64C"/>
<path d="M39.7815 21.9567C40.313 21.437 40.0177 20.5276 39.2854 20.4213L32.4705 19.4291C32.1752 19.3819 31.9272 19.2047 31.7972 18.9331L28.75 12.7559C28.4193 12.0827 27.4626 12.0827 27.1319 12.7559L24.0964 18.9331C23.9665 19.1929 23.7067 19.3819 23.4232 19.4291L16.6083 20.4213C15.876 20.5276 15.5807 21.437 16.1122 21.9567L21.0374 26.7638C21.25 26.9764 21.3445 27.2716 21.2972 27.5551L20.1397 34.3346C20.0098 35.0669 20.7894 35.6339 21.4508 35.2795L27.5453 32.0787C27.8051 31.937 28.124 31.937 28.3838 32.0787L34.4783 35.2795C35.1397 35.622 35.9075 35.0669 35.7894 34.3346L34.6201 27.5551C34.5728 27.2598 34.6673 26.9646 34.8799 26.7638L39.7815 21.9567Z" fill="white"/>
</svg>
