<svg width="22" height="22" viewBox="0 0 22 22" fill="none" xmlns="http://www.w3.org/2000/svg">
<path d="M16.9895 16.5477C17.3366 16.2006 17.3366 15.6377 16.9895 15.2906L12.5903 10.8914L16.9907 6.49106C17.3378 6.14393 17.3378 5.58112 16.9907 5.23398C16.6436 4.88685 16.0808 4.88685 15.7336 5.23398L11.3332 9.63436L6.93286 5.23398C6.58573 4.88685 6.02292 4.88685 5.67579 5.23398C5.32865 5.58112 5.32865 6.14393 5.67579 6.49106L10.0762 10.8914L5.67699 15.2906C5.32986 15.6377 5.32986 16.2006 5.67699 16.5477C6.02413 16.8948 6.58694 16.8948 6.93407 16.5477L11.3332 12.1485L15.7324 16.5477C16.0795 16.8948 16.6424 16.8948 16.9895 16.5477Z" fill="#191D23"/>
</svg>
