<svg width="61" height="60" viewBox="0 0 61 60" fill="none" xmlns="http://www.w3.org/2000/svg">
<path d="M58.9861 27.5966V32.3947C58.9861 32.9055 58.6382 33.3506 58.1425 33.4741L54.6146 34.3529C54.2041 34.4552 53.8958 34.7845 53.8041 35.1976C53.1961 37.937 52.1203 40.5001 50.6605 42.7975C50.4339 43.154 50.4198 43.6031 50.6368 43.9654L52.5079 47.0881C52.77 47.5255 52.7012 48.0849 52.3411 48.4457L48.9512 51.8421C48.59 52.2039 48.0288 52.273 47.5906 52.0097L44.4705 50.1338C44.1079 49.9159 43.658 49.9298 43.301 50.1567C41.0046 51.6163 38.4482 52.6918 35.71 53.2998C35.2975 53.3914 34.9684 53.699 34.8657 54.109L33.9793 57.6484C33.8553 58.1434 33.4105 58.4906 32.9002 58.4906H28.1C27.5898 58.4906 27.1449 58.1434 27.0209 57.6484L26.1345 54.109C26.0319 53.699 25.7027 53.3914 25.2902 53.2998C22.5526 52.6919 19.9973 51.6167 17.7078 50.1576C17.3509 49.9302 16.9009 49.9156 16.5379 50.1335L13.4093 52.0107C12.9712 52.2736 12.4105 52.2042 12.0495 51.8427L8.65906 48.4457C8.29895 48.0849 8.23016 47.5255 8.49219 47.0881L10.3448 43.9964C10.5714 43.6181 10.5437 43.149 10.2948 42.785C8.78996 40.5842 7.78965 37.9404 7.19539 35.2032C7.10492 34.7864 6.79285 34.4544 6.37895 34.3513L2.85746 33.474C2.36176 33.3505 2.01395 32.9054 2.01395 32.3946V27.5965C2.01395 27.0856 2.36176 26.6406 2.85746 26.517L6.38164 25.6391C6.79414 25.5363 7.10363 25.2049 7.19504 24.7898C7.7975 22.0528 8.87844 19.4919 10.3378 17.1961C10.5652 16.8383 10.5793 16.3869 10.3611 16.0234L8.49313 12.912C8.23051 12.4747 8.29906 11.9147 8.65953 11.5536L12.0488 8.15786C12.41 7.79598 12.9712 7.72696 13.4094 7.99028L16.5274 9.86481C16.8911 10.0835 17.3423 10.0686 17.6997 9.83985C19.9903 8.37442 22.5525 7.29887 25.2975 6.69114C25.7108 6.59962 26.0404 6.2913 26.1427 5.88055L27.0215 2.35298C27.145 1.85727 27.5901 1.50946 28.1009 1.50946H32.8989C33.4098 1.50946 33.8548 1.85727 33.9784 2.35298L34.8563 5.87727C34.9591 6.28977 35.2905 6.59927 35.7056 6.69067C38.4429 7.29325 41.004 8.3743 43.2999 9.83376C43.6575 10.061 44.1084 10.0753 44.4718 9.85755L47.591 7.98852C48.029 7.72602 48.5894 7.79552 48.9501 8.15692L52.3404 11.5537C52.7007 11.9148 52.7694 12.4748 52.5068 12.9122L50.6388 16.0235C50.4206 16.387 50.4346 16.8383 50.6621 17.1962C52.1214 19.492 53.2024 22.0529 53.8048 24.7899C53.8963 25.205 54.2059 25.5365 54.6182 25.6392L58.1424 26.5172C58.6381 26.6406 58.9861 27.0857 58.9861 27.5966Z" fill="#CCE1FF"/>
<path d="M48.2225 29.995C48.2225 39.7836 40.2853 47.7208 30.5033 47.7208C20.7147 47.7208 12.7775 39.7836 12.7775 29.995C12.7775 20.2065 20.7147 12.2758 30.5033 12.2758C40.2853 12.2758 48.2225 20.2065 48.2225 29.995Z" fill="#D7E9FF"/>
<path d="M22.505 35.5659C24.2927 35.5659 25.742 34.1167 25.742 32.329C25.742 30.5413 24.2927 29.092 22.505 29.092C20.7173 29.092 19.2681 30.5413 19.2681 32.329C19.2681 34.1167 20.7173 35.5659 22.505 35.5659Z" fill="white"/>
<path d="M30.5 30.908C32.2877 30.908 33.737 29.4588 33.737 27.6711C33.737 25.8834 32.2877 24.4341 30.5 24.4341C28.7123 24.4341 27.2631 25.8834 27.2631 27.6711C27.2631 29.4588 28.7123 30.908 30.5 30.908Z" fill="white"/>
<path d="M38.4949 34.7821C40.2826 34.7821 41.7318 33.3329 41.7318 31.5452C41.7318 29.7575 40.2826 28.3082 38.4949 28.3082C36.7072 28.3082 35.2579 29.7575 35.2579 31.5452C35.2579 33.3329 36.7072 34.7821 38.4949 34.7821Z" fill="white"/>
<path d="M2.71064 34.0622L6.23224 34.9394C6.41868 34.986 6.56083 35.1363 6.60278 35.3322C7.26337 38.3738 8.33728 40.9965 9.79415 43.1277C9.91427 43.3029 9.92552 43.5163 9.82497 43.6847L7.97153 46.7769C7.56665 47.4535 7.67259 48.316 8.22958 48.8743L11.6204 52.2708C12.1781 52.8304 13.0412 52.9385 13.7208 52.5307L16.8499 50.6536C17.0115 50.5571 17.2146 50.563 17.382 50.6693C19.7724 52.1927 22.3884 53.2769 25.1583 53.8917C25.3518 53.9349 25.501 54.0749 25.5466 54.2564L26.4328 57.7964C26.6252 58.5621 27.3106 59.0969 28.0998 59.0969H32.9001C33.6893 59.0969 34.3747 58.5621 34.5671 57.7958L35.4533 54.256C35.4989 54.0746 35.6475 53.9349 35.8411 53.8917C38.6086 53.2775 41.2281 52.1931 43.6261 50.6687C43.7931 50.5624 43.9972 50.5571 44.1576 50.6536L47.278 52.5293C47.9564 52.9365 48.8206 52.8311 49.3801 52.2705L52.7703 48.8741C53.3273 48.3161 53.4334 47.4536 53.0278 46.7767L51.1565 43.654C51.0601 43.4929 51.0659 43.2896 51.1719 43.1226C52.6951 40.7254 53.7801 38.1033 54.3958 35.329C54.4385 35.1351 54.5788 34.9868 54.7611 34.9412L58.2893 34.0622C59.0565 33.8709 59.5922 33.1855 59.5922 32.3948V27.5966C59.5922 26.8057 59.0564 26.1202 58.2893 25.929L54.7646 25.0511C54.5811 25.0053 54.4402 24.8554 54.397 24.6599C53.7896 21.9007 52.7052 19.28 51.1736 16.8706C51.0665 16.7031 51.0611 16.4977 51.1583 16.3354L53.0266 13.224C53.4327 12.5468 53.3273 11.6839 52.7697 11.1254L49.3789 7.72837C48.82 7.1695 47.9576 7.06239 47.2797 7.46845L44.1607 9.33759C43.9979 9.43439 43.7936 9.42841 43.6249 9.32224C41.2161 7.79083 38.5954 6.70626 35.8357 6.09864C35.6403 6.0554 35.4906 5.9149 35.445 5.73068L34.5665 2.20661C34.3759 1.43915 33.6899 0.903137 32.899 0.903137H28.1009C27.31 0.903137 26.6246 1.43892 26.4328 2.20638L25.5543 5.73396C25.5093 5.9163 25.3602 6.05634 25.1666 6.09923C22.3814 6.71575 19.7594 7.80267 17.3733 9.32939C17.2051 9.43685 17.0009 9.44189 16.8399 9.34532L13.722 7.47079C13.0436 7.06357 12.18 7.16892 11.6199 7.72954L8.23017 11.1254C7.67247 11.6845 7.56653 12.5476 7.97329 13.224L9.84161 16.3351C9.93864 16.4976 9.93337 16.7031 9.82626 16.8709C8.29485 19.2799 7.21028 21.9006 6.6029 24.6601C6.55966 24.8554 6.4188 25.0052 6.2347 25.0511L2.71064 25.929C1.94341 26.1202 1.40775 26.8057 1.40775 27.5966V32.3948C1.40775 33.1854 1.94341 33.8709 2.71064 34.0622ZM2.62005 27.5966C2.62005 27.3636 2.77814 27.1618 3.00419 27.1052L6.52767 26.2274C7.16224 26.0696 7.64411 25.5688 7.78685 24.9202C8.364 22.2998 9.39407 19.8106 10.8492 17.5217C11.2038 16.9644 11.2162 16.2709 10.8812 15.7114L9.01286 12.5997C8.89275 12.4005 8.92403 12.1466 9.08868 11.982L12.4783 8.58618C12.6429 8.42165 12.8974 8.38966 13.097 8.50978L16.2149 10.3843C16.7749 10.7205 17.4681 10.7081 18.0269 10.3506C20.293 8.90083 22.7829 7.86876 25.4284 7.28329C26.0742 7.14032 26.5739 6.65904 26.7313 6.02716L27.6097 2.49993C27.6659 2.27376 27.8677 2.11579 28.1011 2.11579H32.8991C33.1317 2.11579 33.3336 2.27353 33.3899 2.4997L34.2683 6.02376C34.4258 6.65751 34.9265 7.13997 35.5754 7.28294C38.1967 7.86009 40.686 8.8904 42.9751 10.3455C43.5328 10.6998 44.2259 10.712 44.7835 10.3781L47.9026 8.50896C48.1015 8.38943 48.3567 8.42048 48.5212 8.5856L51.9115 11.9824C52.076 12.1467 52.1068 12.4009 51.9873 12.6004L50.119 15.7121C49.7839 16.2712 49.7963 16.9647 50.1509 17.5217C51.6061 19.8109 52.636 22.3002 53.2133 24.9202C53.3559 25.569 53.8378 26.0699 54.4719 26.2276L57.9959 27.1054C58.2221 27.1619 58.3801 27.3638 58.3801 27.5968V32.3951C58.3801 32.6277 58.222 32.8298 57.9959 32.8861L54.4684 33.7651C53.8373 33.922 53.356 34.4208 53.2122 35.0662C52.6274 37.7026 51.5967 40.1945 50.1493 42.4725C49.7953 43.0289 49.7834 43.7206 50.1173 44.2774L51.988 47.3997C52.1075 47.5992 52.0762 47.8535 51.9122 48.0178L48.5219 51.4142C48.358 51.5788 48.1034 51.6105 47.9033 51.4903L44.7828 49.6148C44.2251 49.2788 43.5326 49.291 42.9761 49.6453C40.6965 51.0938 38.2078 52.1242 35.5776 52.7082C34.933 52.8518 34.4346 53.3325 34.2777 53.962L33.3915 57.5008C33.3347 57.7267 33.1327 57.8844 32.9001 57.8844H28.0998C27.8672 57.8844 27.6652 57.7267 27.6084 57.5014L26.7222 53.9614C26.5642 53.3315 26.0658 52.8514 25.4211 52.7082C22.7898 52.1239 20.3041 51.0938 18.0338 49.6468C17.4722 49.2893 16.781 49.2811 16.226 49.614L13.0968 51.4911C12.8968 51.6104 12.6427 51.5793 12.4788 51.4145L9.08798 48.018C8.92403 47.8535 8.89263 47.5992 9.01157 47.4L10.8644 44.3081C11.2066 43.7372 11.1793 43.0049 10.7946 42.4431C9.42653 40.4418 8.41485 37.963 7.7879 35.0748C7.64646 34.4247 7.16282 33.9222 6.52579 33.7632L3.00419 32.886C2.77802 32.8297 2.62005 32.6276 2.62005 32.3949V27.5966Z" fill="#116FFF"/>
<path d="M30.5033 48.3269C40.6077 48.3269 48.8285 40.1032 48.8285 29.9949C48.8285 19.8906 40.6078 11.6697 30.5033 11.6697C20.3947 11.6697 12.1711 19.8904 12.1711 29.9949C12.1709 40.1032 20.3947 48.3269 30.5033 48.3269ZM30.5033 12.8822C39.9393 12.8822 47.6161 20.5589 47.6161 29.9949C47.6161 39.4349 39.9393 47.1145 30.5033 47.1145C21.063 47.1145 13.3834 39.4349 13.3834 29.9949C13.3834 20.5589 21.063 12.8822 30.5033 12.8822Z" fill="#116FFF"/>
<path d="M21.8989 36.1196V41.0811C21.8989 41.4159 22.1701 41.6873 22.5051 41.6873C22.8402 41.6873 23.1113 41.4159 23.1113 41.0811V36.1196C24.9429 35.8275 26.3483 34.2413 26.3483 32.3291C26.3483 30.4166 24.9429 28.8303 23.1113 28.5382V18.9191C23.1113 18.5843 22.8402 18.3129 22.5051 18.3129C22.1701 18.3129 21.8989 18.5843 21.8989 18.9191V28.5382C20.0674 28.8303 18.662 30.4165 18.662 32.3291C18.662 34.2413 20.0674 35.8275 21.8989 36.1196ZM22.5051 29.6981C23.9554 29.6981 25.1359 30.8785 25.1359 32.3291C25.1359 33.7797 23.9554 34.9598 22.5051 34.9598C21.0548 34.9598 19.8744 33.7797 19.8744 32.3291C19.8744 30.8784 21.0547 29.6981 22.5051 29.6981Z" fill="#116FFF"/>
<path d="M29.8936 31.4617V41.0811C29.8936 41.4159 30.1647 41.6873 30.4998 41.6873C30.8348 41.6873 31.106 41.4159 31.106 41.0811V31.4617C32.9376 31.1695 34.3435 29.5834 34.3435 27.6711C34.3435 25.7588 32.9376 24.1727 31.106 23.8806V18.9191C31.106 18.5843 30.8348 18.3129 30.4998 18.3129C30.1647 18.3129 29.8936 18.5843 29.8936 18.9191V23.8806C28.062 24.1727 26.6566 25.7588 26.6566 27.6711C26.6566 29.5834 28.062 31.1696 29.8936 31.4617ZM30.4997 25.0404C31.9506 25.0404 33.131 26.2204 33.131 27.6711C33.131 29.1218 31.9506 30.3018 30.4997 30.3018C29.0493 30.3018 27.8689 29.1218 27.8689 27.6711C27.869 26.2206 29.0493 25.0404 30.4997 25.0404Z" fill="#116FFF"/>
<path d="M37.8888 35.3359V41.0811C37.8888 41.4159 38.16 41.6873 38.495 41.6873C38.8301 41.6873 39.1012 41.4159 39.1012 41.0811V35.3359C40.9328 35.0437 42.3382 33.4576 42.3382 31.5453C42.3382 29.6328 40.9328 28.0466 39.1012 27.7544V18.9191C39.1012 18.5843 38.8301 18.3129 38.495 18.3129C38.16 18.3129 37.8888 18.5843 37.8888 18.9191V27.7544C36.0573 28.0466 34.6519 29.6327 34.6519 31.5453C34.6519 33.4576 36.0573 35.0437 37.8888 35.3359ZM38.4949 28.9143C39.9452 28.9143 41.1256 30.0948 41.1256 31.5453C41.1256 32.996 39.9452 34.1761 38.4949 34.1761C37.0446 34.1761 35.8642 32.996 35.8642 31.5453C35.8642 30.0947 37.0446 28.9143 38.4949 28.9143Z" fill="#116FFF"/>
</svg>
