<?xml version="1.0" standalone="no"?><svg xmlns="http://www.w3.org/2000/svg" viewBox="0 0 1440 320"><path fill="#ff9f43" fill-opacity="1" d="M0,288L0,288L36.9,288L36.9,288L73.8,288L73.8,64L110.8,64L110.8,96L147.7,96L147.7,256L184.6,256L184.6,160L221.5,160L221.5,64L258.5,64L258.5,288L295.4,288L295.4,32L332.3,32L332.3,64L369.2,64L369.2,192L406.2,192L406.2,128L443.1,128L443.1,288L480,288L480,64L516.9,64L516.9,256L553.8,256L553.8,64L590.8,64L590.8,160L627.7,160L627.7,288L664.6,288L664.6,256L701.5,256L701.5,64L738.5,64L738.5,320L775.4,320L775.4,96L812.3,96L812.3,192L849.2,192L849.2,64L886.2,64L886.2,64L923.1,64L923.1,160L960,160L960,128L996.9,128L996.9,192L1033.8,192L1033.8,256L1070.8,256L1070.8,192L1107.7,192L1107.7,32L1144.6,32L1144.6,192L1181.5,192L1181.5,96L1218.5,96L1218.5,192L1255.4,192L1255.4,288L1292.3,288L1292.3,96L1329.2,96L1329.2,0L1366.2,0L1366.2,64L1403.1,64L1403.1,192L1440,192L1440,320L1403.1,320L1403.1,320L1366.2,320L1366.2,320L1329.2,320L1329.2,320L1292.3,320L1292.3,320L1255.4,320L1255.4,320L1218.5,320L1218.5,320L1181.5,320L1181.5,320L1144.6,320L1144.6,320L1107.7,320L1107.7,320L1070.8,320L1070.8,320L1033.8,320L1033.8,320L996.9,320L996.9,320L960,320L960,320L923.1,320L923.1,320L886.2,320L886.2,320L849.2,320L849.2,320L812.3,320L812.3,320L775.4,320L775.4,320L738.5,320L738.5,320L701.5,320L701.5,320L664.6,320L664.6,320L627.7,320L627.7,320L590.8,320L590.8,320L553.8,320L553.8,320L516.9,320L516.9,320L480,320L480,320L443.1,320L443.1,320L406.2,320L406.2,320L369.2,320L369.2,320L332.3,320L332.3,320L295.4,320L295.4,320L258.5,320L258.5,320L221.5,320L221.5,320L184.6,320L184.6,320L147.7,320L147.7,320L110.8,320L110.8,320L73.8,320L73.8,320L36.9,320L36.9,320L0,320L0,320Z"></path></svg>