<?xml version="1.0" standalone="no"?><svg xmlns="http://www.w3.org/2000/svg" viewBox="0 0 1440 320"><path fill="#ff9f43bf" fill-opacity="1" d="M0,64L20,85.3C40,107,80,149,120,149.3C160,149,200,107,240,101.3C280,96,320,128,360,128C400,128,440,96,480,101.3C520,107,560,149,600,160C640,171,680,149,720,117.3C760,85,800,43,840,26.7C880,11,920,21,960,26.7C1000,32,1040,32,1080,42.7C1120,53,1160,75,1200,69.3C1240,64,1280,32,1320,21.3C1360,11,1400,21,1420,26.7L1440,32L1440,320L1420,320C1400,320,1360,320,1320,320C1280,320,1240,320,1200,320C1160,320,1120,320,1080,320C1040,320,1000,320,960,320C920,320,880,320,840,320C800,320,760,320,720,320C680,320,640,320,600,320C560,320,520,320,480,320C440,320,400,320,360,320C320,320,280,320,240,320C200,320,160,320,120,320C80,320,40,320,20,320L0,320Z"></path></svg>