<?xml version="1.0" standalone="no"?><svg xmlns="http://www.w3.org/2000/svg" viewBox="0 0 1440 320"><path fill="#ff9f43" fill-opacity="1" d="M0,32L20,64C40,96,80,160,120,181.3C160,203,200,181,240,154.7C280,128,320,96,360,101.3C400,107,440,149,480,144C520,139,560,85,600,58.7C640,32,680,32,720,32C760,32,800,32,840,37.3C880,43,920,53,960,69.3C1000,85,1040,107,1080,106.7C1120,107,1160,85,1200,80C1240,75,1280,85,1320,101.3C1360,117,1400,139,1420,149.3L1440,160L1440,320L1420,320C1400,320,1360,320,1320,320C1280,320,1240,320,1200,320C1160,320,1120,320,1080,320C1040,320,1000,320,960,320C920,320,880,320,840,320C800,320,760,320,720,320C680,320,640,320,600,320C560,320,520,320,480,320C440,320,400,320,360,320C320,320,280,320,240,320C200,320,160,320,120,320C80,320,40,320,20,320L0,320Z"></path></svg>